<?xml version="1.0" encoding="UTF-8" standalone="no" ?>
<!DOCTYPE svg PUBLIC "-//W3C//DTD SVG 1.1//EN" "http://www.w3.org/Graphics/SVG/1.1/DTD/svg11.dtd">
<svg xmlns="http://www.w3.org/2000/svg" xmlns:xlink="http://www.w3.org/1999/xlink" version="1.1" width="1080" height="1080" viewBox="0 0 1080 1080" xml:space="preserve">
<desc>Created with Fabric.js 5.2.4</desc>
<defs>
</defs>
<rect x="0" y="0" width="100%" height="100%" fill="transparent"></rect>
<g transform="matrix(1 0 0 1 540 540)" id="5c16933c-b8e0-4b10-9389-de0e7751c072"  >
<rect style="stroke: none; stroke-width: 1; stroke-dasharray: none; stroke-linecap: butt; stroke-dashoffset: 0; stroke-linejoin: miter; stroke-miterlimit: 4; fill: rgb(255,255,255); fill-rule: nonzero; opacity: 1; visibility: hidden;" vector-effect="non-scaling-stroke"  x="-540" y="-540" rx="0" ry="0" width="1080" height="1080" />
</g>
<g transform="matrix(1 0 0 1 540 540)" id="b9897054-1bbd-45a6-ac87-8f71c8510c3b"  >
</g>
<g transform="matrix(1 0 0 1 540 540)"  >
<g style="" vector-effect="non-scaling-stroke"   >
		<g transform="matrix(0.13 0 0 -0.13 -93.77 -39.82)"  >
<path style="stroke: none; stroke-width: 1; stroke-dasharray: none; stroke-linecap: butt; stroke-dashoffset: 0; stroke-linejoin: miter; stroke-miterlimit: 4; fill: rgb(0,150,136); fill-rule: nonzero; opacity: 1;" vector-effect="non-scaling-stroke"  transform=" translate(-697.48, -1529.82)" d="M 780 2055 C 701 2026 495 1929 479 1914 C 450 1887 437 1835 450 1796 C 475 1720 541 1695 628 1729 C 665 1744 680 1746 680 1737 C 680 1731 660 1587 635 1417 C 611 1248 593 1096 597 1080 C 600 1063 618 1036 638 1019 C 669 992 679 988 717 993 C 760 998 801 1025 821 1062 C 832 1082 950 1901 950 1957 C 950 2002 930 2034 890 2055 C 855 2073 827 2073 780 2055 z" stroke-linecap="round" />
</g>
		<g transform="matrix(0.13 0 0 -0.13 -9.66 -47.68)"  >
<path style="stroke: none; stroke-width: 1; stroke-dasharray: none; stroke-linecap: butt; stroke-dashoffset: 0; stroke-linejoin: miter; stroke-miterlimit: 4; fill: rgb(0,150,136); fill-rule: nonzero; opacity: 1;" vector-effect="non-scaling-stroke"  transform=" translate(-1328.32, -1588.75)" d="M 1253 2051 C 1152 2017 1080 1936 1061 1836 C 1043 1738 1010 1465 1010 1409 C 1010 1322 1035 1263 1099 1200 C 1217 1083 1382 1079 1505 1192 C 1584 1264 1595 1300 1635 1641 C 1649 1750 1650 1789 1640 1833 C 1604 2008 1423 2110 1253 2051 z M 1390 1810 C 1415 1785 1415 1793 1385 1571 C 1359 1379 1348 1350 1307 1350 C 1272 1350 1250 1379 1250 1424 C 1250 1447 1261 1541 1274 1635 C 1293 1766 1302 1807 1316 1817 C 1341 1836 1367 1833 1390 1810 z" stroke-linecap="round" />
</g>
		<g transform="matrix(0.13 0 0 -0.13 84.16 -51.82)"  >
<path style="stroke: none; stroke-width: 1; stroke-dasharray: none; stroke-linecap: butt; stroke-dashoffset: 0; stroke-linejoin: miter; stroke-miterlimit: 4; fill: rgb(0,150,136); fill-rule: nonzero; opacity: 1;" vector-effect="non-scaling-stroke"  transform=" translate(-2031.94, -1619.76)" d="M 1953 2051 C 1860 2019 1784 1940 1760 1850 C 1744 1791 1718 1488 1724 1436 C 1737 1324 1810 1230 1916 1190 C 2090 1125 2283 1239 2314 1425 C 2331 1525 2346 1774 2339 1820 C 2310 2002 2127 2112 1953 2051 z M 2082 1813 C 2094 1802 2100 1783 2100 1751 C 2100 1701 2082 1487 2074 1453 C 2065 1407 1992 1398 1970 1440 C 1963 1453 1964 1509 1974 1627 C 1988 1777 1991 1797 2011 1813 C 2038 1834 2058 1835 2082 1813 z" stroke-linecap="round" />
</g>
		<g transform="matrix(0.13 0 0 -0.13 0 47.96)"  >
<path style="stroke: none; stroke-width: 1; stroke-dasharray: none; stroke-linecap: butt; stroke-dashoffset: 0; stroke-linejoin: miter; stroke-miterlimit: 4; fill: rgb(0,150,136); fill-rule: nonzero; opacity: 1;" vector-effect="non-scaling-stroke"  transform=" translate(-1400.76, -871.47)" d="M 1385 991 C 940 926 558 870 538 866 C 477 855 430 783 444 725 C 454 684 501 640 540 634 C 580 628 2249 864 2294 882 C 2330 896 2360 945 2360 988 C 2360 1060 2307 1111 2233 1109 C 2212 1108 1831 1055 1385 991 z" stroke-linecap="round" />
</g>
		<g transform="matrix(0.13 0 0 -0.13 56.09 87.96)"  >
<path style="stroke: none; stroke-width: 1; stroke-dasharray: none; stroke-linecap: butt; stroke-dashoffset: 0; stroke-linejoin: miter; stroke-miterlimit: 4; fill: rgb(0,150,136); fill-rule: nonzero; opacity: 1;" vector-effect="non-scaling-stroke"  transform=" translate(-1821.45, -571.42)" d="M 1795 689 C 1575 657 1386 628 1374 626 C 1311 610 1266 528 1289 472 C 1307 430 1342 400 1381 394 C 1419 388 2249 504 2294 522 C 2330 536 2360 585 2360 628 C 2360 701 2307 751 2233 749 C 2212 748 2015 721 1795 689 z" stroke-linecap="round" />
</g>
</g>
</g>
<g transform="matrix(NaN NaN NaN NaN 0 0)"  >
<g style=""   >
</g>
</g>
<g transform="matrix(NaN NaN NaN NaN 0 0)"  >
<g style=""   >
</g>
</g>
<g transform="matrix(NaN NaN NaN NaN 0 0)"  >
<g style=""   >
</g>
</g>
</svg>